<?xml version="1.0" encoding="utf-8" ?>
<svg xmlns="http://www.w3.org/2000/svg" xmlns:xlink="http://www.w3.org/1999/xlink" width="179" height="201">
	<g>
		<path fill="#3E60BF" d="M99.3474 85.5437C104.273 87.7812 108.558 92.2654 110.995 97.0605C114.011 102.995 114.952 110.471 112.855 116.857Q112.652 117.488 112.417 118.108Q112.183 118.729 111.918 119.337Q111.653 119.945 111.358 120.539Q111.063 121.133 110.739 121.711Q110.415 122.29 110.063 122.852Q109.711 123.414 109.331 123.958Q108.952 124.501 108.546 125.026Q108.139 125.55 107.708 126.054Q107.276 126.557 106.82 127.038Q106.364 127.52 105.885 127.978Q105.405 128.437 104.904 128.87Q104.402 129.304 103.88 129.713Q103.358 130.121 102.816 130.504Q102.274 130.886 101.713 131.241Q101.153 131.595 100.576 131.922Q99.9988 132.248 99.4061 132.546C93.2825 135.644 85.6214 136.511 79.0542 134.321C72.185 132.031 67.0948 127.508 63.8957 121.048C60.874 114.946 59.9856 107.944 62.1886 101.414C64.7509 94.9642 68.346 89.7563 74.6407 86.5144C75.3634 86.1422 75.9458 85.8596 76.7404 86.114C77.1234 87.4729 76.7289 89.1219 76.7413 90.5402C76.7583 92.4797 77.022 94.6049 76.6505 96.5072C75.9973 99.8508 72.7305 102.302 71.9071 105.845C70.9264 110.065 71.8579 114.687 74.1519 118.333C76.4596 122 80.1862 124.278 84.3858 125.223C88.5737 126.166 92.8051 124.844 96.3468 122.572C101.917 118.998 105.188 111.9 102.935 105.442C102.033 102.857 100.349 100.543 99.6059 97.9095C98.749 94.8734 98.6448 88.6579 99.3254 85.6381L99.3474 85.5437Z"/>
		<path fill="#3E60BF" d="M158.798 131.807C159.067 134.826 158.807 137.989 158.843 141.027C158.917 147.314 158.861 153.583 158.844 159.869C158.83 164.894 159.284 170.462 158.137 175.367C157.173 179.487 154.847 183.645 152.148 186.896C147.453 192.55 140.74 195.247 133.612 195.873C128.084 196.358 122.356 196.147 116.805 196.077C111.37 196.009 105.932 196.038 100.496 196.037C74.0044 196.034 50.1193 199.4 28.2539 180.976C15.8911 170.559 6.20167 154.467 4.80868 138.172C4.34045 132.694 4.37376 127.159 4.32699 121.665L4.31053 94.2701L4.27836 70.3652C4.31738 63.9826 4.0879 57.244 5.52029 50.994C7.00772 44.5039 11.1087 37.1381 15.3972 32.0623C22.9605 23.1107 34.416 16.8918 46.1339 15.9108C54.5497 15.2063 63.3029 15.6765 71.7499 15.6798C76.7526 15.6818 82.0807 15.132 87.0299 15.7666C88.5237 15.9581 90.0018 16.3919 91.1581 17.4003C92.7278 18.7694 93.0886 20.7562 93.3467 22.7211C94.1527 28.8578 93.5819 37.4036 93.5544 43.8465L93.6454 75.2091C93.6093 83.2694 93.2238 91.4897 93.7828 99.5305C94.3472 99.9114 94.9034 100.33 95.3831 100.815C97.5106 102.964 99.0264 106.174 99.0033 109.224C98.9793 112.382 97.3055 115.645 95.0726 117.822C92.653 120.182 89.646 121.199 86.3011 121.154C83.3024 121.113 80.6483 120.135 78.55 117.952C76.3018 115.613 74.8773 112.198 74.9654 108.944C75.0663 105.216 76.8014 102.216 79.4578 99.7024C79.818 91.6088 79.4173 83.3665 79.345 75.2651C79.263 66.0869 79.4662 56.8938 79.448 47.7123C79.4369 42.0679 79.1984 36.3832 79.5235 30.7483C76.7157 31.1953 73.5963 30.8823 70.7549 30.8424Q63.4419 30.7409 56.1283 30.7404C45.5275 30.7857 36.8317 32.2288 29.0533 40.1151Q28.2955 40.8785 27.5917 41.6919Q26.8879 42.5054 26.2414 43.3651Q25.595 44.2248 25.0088 45.1267Q24.4227 46.0287 23.8997 46.9686Q23.3767 47.9086 22.9193 48.8821Q22.4618 49.8556 22.0721 50.8582Q21.6823 51.8607 21.3621 52.8876Q21.0419 53.9145 20.7927 54.9609C19.1991 61.9035 20.0005 75.133 20.0066 82.7871L20.0005 128.216C20.0855 142.37 24.5733 155.834 34.8205 165.941C40.5085 171.551 48.0464 176.274 55.7925 178.408C66.3034 181.304 80.7191 180.217 91.881 180.253L131.45 180.292C136.901 180.244 140.355 178.384 142.504 173.162C143.091 171.733 143.365 170.232 143.491 168.698C143.909 163.593 143.594 158.304 143.566 153.179C143.53 146.607 143.675 140.038 143.626 133.465C143.598 129.753 143.085 125.248 143.961 121.646C144.167 120.801 144.576 120.204 145.18 119.595C149.26 115.482 159.174 116.745 164.774 116.732C160.625 108.886 157.291 100.597 153.652 92.5126C150.715 85.987 147.151 79.5472 145.134 72.6481C142.127 62.3615 144.566 50.6352 137.966 41.5926C135.918 38.786 133.35 36.8859 130.323 35.2507C123.28 31.4446 119.171 31.9801 111.58 31.999C109.765 32.0035 107.884 32.066 106.088 31.7723C103.919 31.4175 102.353 30.5453 101.062 28.7371C99.8722 27.0712 99.369 24.6631 99.7275 22.6542C100.068 20.7462 101.201 19.2262 102.775 18.1377C107.004 15.2135 119.755 16.0804 124.932 17.0021C141.572 19.965 154.557 32.6158 157.503 49.3099C158.545 55.2111 157.986 61.3391 159.477 67.1702C160.286 70.3304 161.767 73.3706 163.066 76.3539C165.796 82.6258 168.776 88.7631 171.601 94.9896C173.543 99.2713 176.495 107.234 178.947 110.724L179 110.799L179 121.654C177.285 124.146 176.221 126.672 173.803 128.675C169.779 132.007 163.802 132.29 158.798 131.807Z"/>
	</g>
	<g/>
</svg>
